<svg width="64" height="64" viewBox="0 0 64 64" fill="none" xmlns="http://www.w3.org/2000/svg">
<rect width="64" height="64" rx="32" fill="url(#paint0_linear_6421_3856)"/>
<path d="M46.7989 19.809L32.4368 13.1361C32.0476 12.9546 31.5957 12.9546 31.2065 13.1361L16.8444 19.809C16.3299 20.0498 16 20.5644 16 21.135V37.75C16 38.0996 16.1253 38.4394 16.3562 38.7066C20.3607 43.3345 25.1763 47.2893 31.0746 50.7988C31.3056 50.934 31.5661 51 31.8234 51C32.0807 51 32.3413 50.934 32.5689 50.7955C38.47 47.2892 43.283 43.3309 47.2873 38.7033C47.5149 38.4394 47.6435 38.0996 47.6435 37.7467V21.1351C47.6435 20.5677 47.3134 20.0497 46.7989 19.809ZM44.7241 37.1992C41.1683 41.2201 36.9395 44.7067 31.8238 47.8339C26.7077 44.7069 22.4793 41.217 18.9234 37.1992V22.0653L31.8238 16.0718L44.7241 22.0653V37.1992ZM30.5765 33.4619L37.8466 25.7697C38.4007 25.1825 39.3243 25.1561 39.9114 25.7136C40.4986 26.2677 40.525 27.1946 39.9675 27.7785L31.7212 36.5031C31.4342 36.8066 31.0483 36.9583 30.659 36.9583C30.3127 36.9583 29.963 36.8363 29.686 36.5856L23.7585 31.2815C23.1582 30.7439 23.1054 29.8202 23.6431 29.2199C24.1808 28.6196 25.1044 28.5668 25.7047 29.1045L30.5765 33.4619Z" fill="#C5D9F9" stroke="#C5D9F9"/>
<defs>
<linearGradient id="paint0_linear_6421_3856" x1="32" y1="0" x2="32" y2="64" gradientUnits="userSpaceOnUse">
<stop stop-color="#EDF4FF"/>
<stop offset="1" stop-color="white"/>
</linearGradient>
</defs>
</svg>
